<svg id="Layer_1" data-name="Layer 1" xmlns="http://www.w3.org/2000/svg" viewBox="0 0 1193 1197.76"><defs><style>.cls-1{fill:#f95353;}.cls-2{fill:#fff;}</style></defs><title>logo</title><path class="cls-1" d="M1460.5,49.12a557.94,557.94,0,0,1-20.86,67.59,612.75,612.75,0,0,1-88.91,160,614.18,614.18,0,0,1-113.1,113.1,609.14,609.14,0,0,1-192.13,99.68,596.24,596.24,0,0,1-99.21,21.81c-21.15,2.77-42.36,4.27-63.66,5.2a546.66,546.66,0,0,1-67.38-1.6,607.73,607.73,0,0,1-199.18-50.42A609.34,609.34,0,0,1,472.3,375.19,615.89,615.89,0,0,1,325.12,196.58,610.63,610.63,0,0,1,269.29,56c-.35-1.32-.19-3.07-1.79-3.89v-3Z" transform="translate(-267.5 -49.12)"/><path class="cls-2" d="M608.05,1015.93c1.28-.58,1.89-.83,2.47-1.12,37.83-18.61,64-47.67,77.49-87.66,10.6-31.37,11.19-63.42,4.52-95.63-9.43-45.58-35.1-78.62-77.39-98.4-28.71-13.43-59.29-18.73-90.66-18.91-70-.42-140-.19-210-.2-1.11,0-2.33-.35-3.47.68V1235H420.76v-197.4c2-.75,3.66-.44,5.3-.44,23.49,0,47,.08,70.49-.12,3.7,0,5.45,1.17,7.13,4.41q49.29,94.86,98.75,189.65c1.56,3,3.15,4.3,6.72,4.28,38.33-.15,76.66-.09,115-.11,1.26,0,2.61.4,4.11-.62ZM582.33,901c-7.15,20.56-22.67,31.68-42.92,37.18a116.12,116.12,0,0,1-30.13,3.76c-28.64.11-57.28.05-85.93,0-.65,0-1.31-.08-2.52-.16V811.65c.68-1,1.76-.77,2.71-.76,30.47,0,60.95-.08,91.42.19,13.76.12,27.12,2.82,39.51,9.1,18.77,9.5,28.58,25.17,31.06,45.77C587,877.85,586.28,889.6,582.33,901Z" transform="translate(-267.5 -49.12)"/><path class="cls-2" d="M1229.39,917.09H1117.13c-1.55-7.08-2.89-14.23-4.68-21.26-5.29-20.84-13.45-40.37-27.29-57.12-18.29-22.15-42.09-33.59-70.55-35.59-17.11-1.21-33.92.39-50.1,6.53-23.38,8.89-40.58,25-53.23,46.2-11.38,19.11-17.91,40-21.79,61.71a332.78,332.78,0,0,0-1.78,103.51c3.45,25.54,10.21,50.15,23.55,72.55,16.15,27.13,39,45.26,70.46,51s61.42,1.61,87.64-18.41c17.89-13.66,29.1-32.19,37-52.9a202.6,202.6,0,0,0,10.47-40.82h112.64a131.42,131.42,0,0,1-2.17,17.52c-4.93,30.41-13.83,59.57-28.87,86.58-31.25,56.14-78.19,91.46-141.21,104.62-44.21,9.24-88.09,7.46-131.08-6.93-49.85-16.68-87.21-48.77-113.6-93.88-18.63-31.83-29.41-66.41-35.11-102.71a401.76,401.76,0,0,1-4.66-74.7c1.26-41.54,7.87-82.07,23.61-120.8,16.73-41.2,41.85-75.93,78.72-101.47,27.28-18.9,57.59-30.13,90.35-34.89,35.88-5.21,71.48-3.95,106.43,6,65.87,18.82,110.69,61.32,137.42,123.68,10.82,25.25,16.89,51.77,20.08,79A24.36,24.36,0,0,1,1229.39,917.09Z" transform="translate(-267.5 -49.12)"/><path class="cls-2" d="M1319.78,714.25h109.28v520.91H1319.78Z" transform="translate(-267.5 -49.12)"/></svg>